<svg width="24" height="24" viewBox="0 0 24 24" fill="none" xmlns="http://www.w3.org/2000/svg">
<path d="M10 10V18M14 10V18M18 7V17.8C18 18.9201 18 19.4802 17.782 19.908C17.5903 20.2843 17.2843 20.5903 16.908 20.782C16.4802 21 15.9201 21 14.8 21H9.2C8.0799 21 7.51984 21 7.09202 20.782C6.71569 20.5903 6.40973 20.2843 6.21799 19.908C6 19.4802 6 18.9201 6 17.8V7M18 7H6M18 7H19M6 7H5M8.5 7V6.2C8.5 4.43269 10.067 3 12 3C13.933 3 15.5 4.43269 15.5 6.2V7" stroke="white" strokeWidth="1.5" strokeLinecap="round"/>
</svg>
