<svg width="40" height="40" viewBox="0 0 40 40" fill="none" xmlns="http://www.w3.org/2000/svg">
<circle cx="20" cy="20" r="20" fill="#2A2D36"/>
<path d="M19.9998 10.6667C21.2375 10.6667 22.4245 11.1584 23.2997 12.0336C24.1748 12.9088 24.6665 14.0957 24.6665 15.3334C24.6665 16.5711 24.1748 17.7581 23.2997 18.6332C22.4245 19.5084 21.2375 20.0001 19.9998 20.0001C18.7622 20.0001 17.5752 19.5084 16.7 18.6332C15.8248 17.7581 15.3332 16.5711 15.3332 15.3334C15.3332 14.0957 15.8248 12.9088 16.7 12.0336C17.5752 11.1584 18.7622 10.6667 19.9998 10.6667ZM19.9998 22.3334C25.1565 22.3334 29.3332 24.4217 29.3332 27.0001V29.3334H10.6665V27.0001C10.6665 24.4217 14.8432 22.3334 19.9998 22.3334Z" fill="#5D657B"/>
</svg>
