<svg width="286" height="246" viewBox="0 0 286 246" fill="none" xmlns="http://www.w3.org/2000/svg">
<path d="M95.5897 38.0786C95.5897 43.6311 104.489 48.1323 98.2964 48.1323C92.1034 48.1323 87.083 43.6311 87.083 38.0786C87.083 32.5261 92.1034 28.0249 98.2964 28.0249C104.489 28.0249 95.5897 32.5261 95.5897 38.0786Z" fill="#FE964A"/>
<path d="M183.529 33.229L185.033 37.8603H189.903L185.963 40.7226L187.468 45.3539L183.529 42.4916L179.589 45.3539L181.094 40.7226L177.154 37.8603H182.024L183.529 33.229Z" fill="#FE964A"/>
<path d="M32.2019 131.128C32.2019 131.128 46.4877 124.013 49.7285 127.742C51.5089 129.791 52.8534 132.273 51.2589 134.289C50.0297 135.843 48.2551 136.041 46.1758 135.676C41.7726 134.903 41.8394 128.788 43.6069 125.001C46.0473 119.773 59.0019 122.859 59.0019 122.859" stroke="#236ABD" strokeWidth="2.68099"/>
<circle cx="256.184" cy="114.152" r="7.81956" fill="#D0EEF4"/>
<circle cx="249.709" cy="140.761" r="3.35124" fill="#D0EEF4"/>
<path d="M61.0029 206.005L62.1155 196.409L69.8717 201.326L70.7558 193.276L77.8306 198.149L80.034 189.446" stroke="#2F78EE" strokeWidth="2.23416"/>
<path d="M230.142 54.3957C230.142 54.3957 229.055 47.935 232.176 46.6473C234.798 45.5655 237.071 50.3496 239.226 48.6151C241.408 46.8583 235.96 44.075 237.735 41.9736C239.602 39.7621 245.598 41.9736 245.598 41.9736" stroke="#2F78EE" strokeWidth="2.68099"/>
<path d="M233.885 188.077C237.568 188.448 241.148 182.845 240.735 186.953C240.321 191.061 237 194.091 233.317 193.72C229.634 193.349 226.984 189.719 227.397 185.611C227.811 181.503 230.202 187.707 233.885 188.077Z" fill="#2F78EE"/>
<rect x="83.2715" y="59.5767" width="132.915" height="132.915" rx="66.4576" fill="#236ABD"/>
<g filter="url(#filter0_d_1229_10114)">
<rect x="109.854" y="86.1597" width="79.7491" height="79.7491" rx="39.8745" fill="white" shape-rendering="crispEdges"/>
<path fillRule="evenodd" clipRule="evenodd" d="M164.195 116.553C164.844 117.201 164.844 118.253 164.195 118.902L147.581 135.517C146.932 136.165 145.88 136.165 145.231 135.517L136.924 127.209C136.275 126.561 136.275 125.509 136.924 124.86C137.573 124.211 138.625 124.211 139.274 124.86L146.406 131.992L161.846 116.553C162.495 115.904 163.547 115.904 164.195 116.553Z" fill="#1C1D1E"/>
</g>
<defs>
<filter id="filter0_d_1229_10114" x="56.6884" y="59.5766" width="186.081" height="186.081" filterUnits="userSpaceOnUse" color-interpolation-filters="sRGB">
<feFlood flood-opacity="0" result="BackgroundImageFix"/>
<feColorMatrix in="SourceAlpha" type="matrix" values="0 0 0 0 0 0 0 0 0 0 0 0 0 0 0 0 0 0 127 0" result="hardAlpha"/>
<feOffset dy="26.583"/>
<feGaussianBlur stdDeviation="26.583"/>
<feComposite in2="hardAlpha" operator="out"/>
<feColorMatrix type="matrix" values="0 0 0 0 0 0 0 0 0 0 0 0 0 0 0 0 0 0 0.3 0"/>
<feBlend mode="normal" in2="BackgroundImageFix" result="effect1_dropShadow_1229_10114"/>
<feBlend mode="normal" in="SourceGraphic" in2="effect1_dropShadow_1229_10114" result="shape"/>
</filter>
</defs>
</svg>
